{"accessors" : [{"bufferView" : 0, "byteOffset" : 0, "componentType" : 5123, "count" : 4287, "type" : "SCALAR", "max" : [4286], "min" : [0]}, {"bufferView" : 1, "byteOffset" : 0, "componentType" : 5126, "count" : 4287, "type" : "VEC3", "max" : [28.05000114440918, 19.804935455322266, 19.837549209594727], "min" : [0, 15.890321731567383, 0.4528125822544098], "name" : "POSITION"}, {"bufferView" : 1, "byteOffset" : 12, "componentType" : 5126, "count" : 4287, "type" : "VEC3", "max" : [1.0000044107437134, 1.0000044107437134, 1.0000044107437134], "min" : [-1.0000044107437134, -1.0000044107437134, -1.0000044107437134], "name" : "NORMAL"}, {"bufferView" : 1, "byteOffset" : 24, "componentType" : 5126, "count" : 4287, "type" : "VEC2", "max" : [11.046354293823242, 7.33527946472168], "min" : [-11.043307304382324, -7.314891338348389], "name" : "TEXCOORD_0"}, {"bufferView" : 0, "byteOffset" : 8576, "componentType" : 5123, "count" : 876, "type" : "SCALAR", "max" : [875], "min" : [0]}, {"bufferView" : 2, "byteOffset" : 0, "componentType" : 5126, "count" : 876, "type" : "VEC3", "max" : [27.900876998901367, 20.354934692382812, 19.78754997253418], "min" : [0.15000000596046448, 19.199934005737305, 0.28754836320877075], "name" : "POSITION"}, {"bufferView" : 2, "byteOffset" : 12, "componentType" : 5126, "count" : 876, "type" : "VEC3", "max" : [1.0000044107437134, 1.0000044107437134, 1.0000044107437134], "min" : [-1.0000044107437134, -1.0000044107437134, -1.0000044107437134], "name" : "NORMAL"}, {"bufferView" : 2, "byteOffset" : 24, "componentType" : 5126, "count" : 876, "type" : "VEC2", "max" : [10.926310539245605, 0.06830821186304092], "min" : [-8.503936767578125, -7.559055328369141], "name" : "TEXCOORD_0"}, {"bufferView" : 0, "byteOffset" : 10328, "componentType" : 5123, "count" : 6, "type" : "SCALAR", "max" : [5], "min" : [0]}, {"bufferView" : 3, "byteOffset" : 0, "componentType" : 5126, "count" : 6, "type" : "VEC3", "max" : [26.94849967956543, 19.804935455322266, 18.491548538208008], "min" : [1.1015000343322754, 19.804935455322266, 2.3375484943389893], "name" : "POSITION"}, {"bufferView" : 3, "byteOffset" : 12, "componentType" : 5126, "count" : 6, "type" : "VEC3", "max" : [0, -1.0000044107437134, 0], "min" : [0, -1.0000044107437134, 0], "name" : "NORMAL"}, {"bufferView" : 3, "byteOffset" : 24, "componentType" : 5126, "count" : 6, "type" : "VEC2", "max" : [1, 1.3974932322469158E-14], "min" : [0, -1.0000618696212769], "name" : "TEXCOORD_0"}, {"bufferView" : 0, "byteOffset" : 10340, "componentType" : 5123, "count" : 5505, "type" : "SCALAR", "max" : [5504], "min" : [0]}, {"bufferView" : 4, "byteOffset" : 0, "componentType" : 5126, "count" : 5505, "type" : "VEC3", "max" : [28.05000114440918, 20.354934692382812, 19.935569763183594], "min" : [0, 0.010265103541314602, 0.28556928038597107], "name" : "POSITION"}, {"bufferView" : 4, "byteOffset" : 12, "componentType" : 5126, "count" : 5505, "type" : "VEC3", "max" : [1.0000044107437134, 1.0000044107437134, 1.0000044107437134], "min" : [-1.0000044107437134, -1.0000044107437134, -1.0000044107437134], "name" : "NORMAL"}, {"bufferView" : 4, "byteOffset" : 24, "componentType" : 5126, "count" : 5505, "type" : "VEC2", "max" : [11.043307304382324, 0.20078739523887634], "min" : [-11.279498100280762, -7.736220359802246], "name" : "TEXCOORD_0"}, {"bufferView" : 0, "byteOffset" : 21352, "componentType" : 5123, "count" : 1467, "type" : "SCALAR", "max" : [1466], "min" : [0]}, {"bufferView" : 5, "byteOffset" : 0, "componentType" : 5126, "count" : 1467, "type" : "VEC3", "max" : [28.05000114440918, 19.666311264038086, 0.8975483775138855], "min" : [6.774969989317356E-14, 0.013012449257075787, 0.027670178562402725], "name" : "POSITION"}, {"bufferView" : 5, "byteOffset" : 12, "componentType" : 5126, "count" : 1467, "type" : "VEC3", "max" : [1.0000044107437134, 0.9998366832733154, 0.9953820705413818], "min" : [-1.0000044107437134, -0.9954012632369995, -1.0000044107437134], "name" : "NORMAL"}, {"bufferView" : 5, "byteOffset" : 24, "componentType" : 5126, "count" : 1467, "type" : "VEC2", "max" : [11.043307304382324, 7.422341346740723], "min" : [-11.043307304382324, -12.999367713928223], "name" : "TEXCOORD_0"}, {"bufferView" : 0, "byteOffset" : 24288, "componentType" : 5123, "count" : 846, "type" : "SCALAR", "max" : [845], "min" : [0]}, {"bufferView" : 6, "byteOffset" : 0, "componentType" : 5126, "count" : 846, "type" : "VEC3", "max" : [27.950000762939453, 19.804935455322266, 19.837549209594727], "min" : [0.10000000149011612, 18.17019271850586, 0.5375483632087708], "name" : "POSITION"}, {"bufferView" : 6, "byteOffset" : 12, "componentType" : 5126, "count" : 846, "type" : "VEC3", "max" : [1.0000044107437134, 1.0000044107437134, 0.9998366832733154], "min" : [-0.9979521632194519, -1.0000044107437134, -0.06314872205257416], "name" : "NORMAL"}, {"bufferView" : 6, "byteOffset" : 24, "componentType" : 5126, "count" : 846, "type" : "VEC2", "max" : [9.756098747253418, -0.012823402881622314], "min" : [0.0035650432109832764, -7.512973785400391], "name" : "TEXCOORD_0"}, {"bufferView" : 0, "byteOffset" : 25980, "componentType" : 5123, "count" : 3408, "type" : "SCALAR", "max" : [3407], "min" : [0]}, {"bufferView" : 7, "byteOffset" : 0, "componentType" : 5126, "count" : 3408, "type" : "VEC3", "max" : [25.600000381469727, 17.2130126953125, 0.22767114639282227], "min" : [2.450000047683716, 2.463012456893921, -1.639105526451295E-15], "name" : "POSITION"}, {"bufferView" : 7, "byteOffset" : 12, "componentType" : 5126, "count" : 3408, "type" : "VEC3", "max" : [0.9914492964744568, 0.9914492964744568, 1.0000044107437134], "min" : [-0.9914492964744568, -0.9914492964744568, -1.0000044107437134], "name" : "NORMAL"}, {"bufferView" : 7, "byteOffset" : 24, "componentType" : 5126, "count" : 3408, "type" : "VEC2", "max" : [0.6692913174629211, 0.19086003303527832], "min" : [-0.614118218421936, -0.7836710214614868], "name" : "TEXCOORD_0"}, {"bufferView" : 0, "byteOffset" : 32796, "componentType" : 5123, "count" : 32340, "type" : "SCALAR", "max" : [32339], "min" : [0]}, {"bufferView" : 8, "byteOffset" : 0, "componentType" : 5126, "count" : 32340, "type" : "VEC3", "max" : [27.724985122680664, 17.735475540161133, 0.8623189330101013], "min" : [0.32503923773765564, 7.7355265617370605, 0.5891781449317932], "name" : "POSITION"}, {"bufferView" : 8, "byteOffset" : 12, "componentType" : 5126, "count" : 32340, "type" : "VEC3", "max" : [1.0000044107437134, 0.9998367428779602, 0.9998366832733154], "min" : [-1.0000044107437134, -0.9998367428779602, -0.9998366832733154], "name" : "NORMAL"}, {"bufferView" : 8, "byteOffset" : 24, "componentType" : 5126, "count" : 32340, "type" : "VEC2", "max" : [19.464550018310547, 16.43414878845215], "min" : [-19.54330825805664, -4.0198828423973487E-16], "name" : "TEXCOORD_0"}, {"bufferView" : 0, "byteOffset" : 97476, "componentType" : 5123, "count" : 3888, "type" : "SCALAR", "max" : [3887], "min" : [0]}, {"bufferView" : 9, "byteOffset" : 0, "componentType" : 5126, "count" : 3888, "type" : "VEC3", "max" : [14.895423889160156, 19.804935455322266, 1.339431643486023], "min" : [13.221870422363281, 19.801420211791992, 1.0040398836135864], "name" : "POSITION"}, {"bufferView" : 9, "byteOffset" : 12, "componentType" : 5126, "count" : 3888, "type" : "VEC3", "max" : [1.0000044107437134, 1.0000044107437134, 1.0000044107437134], "min" : [-1.0000044107437134, -1.0000044107437134, -1.0000044107437134], "name" : "NORMAL"}, {"bufferView" : 9, "byteOffset" : 24, "componentType" : 5126, "count" : 3888, "type" : "VEC2", "max" : [53.126190185546875, 0.2473050057888031], "min" : [-53.126190185546875, -9.315155029296875], "name" : "TEXCOORD_0"}], "asset" : {"generator" : "Aspose.3D 23.2", "version" : "2.0"}, "buffers" : [{"uri" : "data:application/octet-stream;base64,", "byteLength" : 1789228}], "bufferViews" : [{"buffer" : 0, "byteOffset" : 0, "byteLength" : 105252, "target" : 34963}, {"buffer" : 0, "byteOffset" : 105256, "byteLength" : 137184, "byteStride" : 32, "target" : 34962}, {"buffer" : 0, "byteOffset" : 242444, "byteLength" : 28032, "byteStride" : 32, "target" : 34962}, {"buffer" : 0, "byteOffset" : 270480, "byteLength" : 192, "byteStride" : 32, "target" : 34962}, {"buffer" : 0, "byteOffset" : 270676, "byteLength" : 176160, "byteStride" : 32, "target" : 34962}, {"buffer" : 0, "byteOffset" : 446840, "byteLength" : 46944, "byteStride" : 32, "target" : 34962}, {"buffer" : 0, "byteOffset" : 493788, "byteLength" : 27072, "byteStride" : 32, "target" : 34962}, {"buffer" : 0, "byteOffset" : 520864, "byteLength" : 109056, "byteStride" : 32, "target" : 34962}, {"buffer" : 0, "byteOffset" : 629924, "byteLength" : 1034880, "byteStride" : 32, "target" : 34962}, {"buffer" : 0, "byteOffset" : 1664808, "byteLength" : 124416, "byteStride" : 32, "target" : 34962}], "materials" : [{"name" : "0136_Cha", "pbrMetallicRoughness" : {"baseColorFactor" : [0.019607843831181526, 0.019607843831181526, 0.019607843831181526, 1], "metallicFactor" : 0, "roughnessFactor" : 0}, "emissiveFactor" : [0, 0, 0], "alphaMode" : "OPAQUE", "doubleSided" : false}, {"name" : "0137_Bla", "pbrMetallicRoughness" : {"baseColorFactor" : [0, 0, 0, 1], "metallicFactor" : 0, "roughnessFactor" : 0}, "emissiveFactor" : [0, 0, 0], "alphaMode" : "OPAQUE", "doubleSided" : false}, {"name" : "2304x144", "pbrMetallicRoughness" : {"baseColorFactor" : [0.572549045085907, 0.47843143343925476, 0.45098045468330383, 1], "metallicFactor" : 0, "roughnessFactor" : 0}, "emissiveFactor" : [0, 0, 0], "alphaMode" : "OPAQUE", "doubleSided" : false}, {"name" : "0133_Gra", "pbrMetallicRoughness" : {"baseColorFactor" : [1, 0.44705885648727417, 0.27450981736183167, 1], "metallicFactor" : 0, "roughnessFactor" : 0}, "emissiveFactor" : [0, 0, 0], "alphaMode" : "OPAQUE", "doubleSided" : false}, {"name" : "0131_Sil", "pbrMetallicRoughness" : {"baseColorFactor" : [0.7529413104057312, 0.7529413104057312, 0.7529413104057312, 1], "metallicFactor" : 0, "roughnessFactor" : 0}, "emissiveFactor" : [0, 0, 0], "alphaMode" : "OPAQUE", "doubleSided" : false}, {"name" : "0134_Dim", "pbrMetallicRoughness" : {"baseColorFactor" : [0.05098039656877518, 0.05098039656877518, 0.05098039656877518, 1], "metallicFactor" : 0, "roughnessFactor" : 0}, "emissiveFactor" : [0, 0, 0], "alphaMode" : "OPAQUE", "doubleSided" : false}, {"name" : "Color_00", "pbrMetallicRoughness" : {"baseColorFactor" : [0, 0, 0, 1], "metallicFactor" : 0, "roughnessFactor" : 0}, "emissiveFactor" : [0, 0, 0], "alphaMode" : "OPAQUE", "doubleSided" : false}, {"name" : "02 - Default", "pbrMetallicRoughness" : {"baseColorFactor" : [0.5, 0.5, 0.5, 1], "metallicFactor" : 0, "roughnessFactor" : 0}, "emissiveFactor" : [0, 0, 0], "alphaMode" : "OPAQUE", "doubleSided" : false}, {"name" : "0128_Whi", "pbrMetallicRoughness" : {"baseColorFactor" : [1, 1, 1, 1], "metallicFactor" : 0, "roughnessFactor" : 0}, "emissiveFactor" : [0, 0, 0], "alphaMode" : "OPAQUE", "doubleSided" : false}], "meshes" : [{"primitives" : [{"attributes" : {"POSITION" : 1, "NORMAL" : 2, "TEXCOORD_0" : 3}, "indices" : 0, "material" : 0, "mode" : 4}, {"attributes" : {"POSITION" : 5, "NORMAL" : 6, "TEXCOORD_0" : 7}, "indices" : 4, "material" : 1, "mode" : 4}, {"attributes" : {"POSITION" : 9, "NORMAL" : 10, "TEXCOORD_0" : 11}, "indices" : 8, "material" : 2, "mode" : 4}, {"attributes" : {"POSITION" : 13, "NORMAL" : 14, "TEXCOORD_0" : 15}, "indices" : 12, "material" : 3, "mode" : 4}, {"attributes" : {"POSITION" : 17, "NORMAL" : 18, "TEXCOORD_0" : 19}, "indices" : 16, "material" : 4, "mode" : 4}, {"attributes" : {"POSITION" : 21, "NORMAL" : 22, "TEXCOORD_0" : 23}, "indices" : 20, "material" : 5, "mode" : 4}, {"attributes" : {"POSITION" : 25, "NORMAL" : 26, "TEXCOORD_0" : 27}, "indices" : 24, "material" : 6, "mode" : 4}, {"attributes" : {"POSITION" : 29, "NORMAL" : 30, "TEXCOORD_0" : 31}, "indices" : 28, "material" : 7, "mode" : 4}, {"attributes" : {"POSITION" : 33, "NORMAL" : 34, "TEXCOORD_0" : 35}, "indices" : 32, "material" : 8, "mode" : 4}], "name" : ""}], "nodes" : [{"matrix" : [1, 0, 0, 0, 0, 6.123233995736766E-17, -1, 0, 0, 1, 6.123233995736766E-17, 0, -13.015216827392578, 70.02656555175781, 28.153440475463867, 1], "mesh" : 0, "name" : "macbookpro-low"}], "scene" : 0, "scenes" : [{"nodes" : [0]}]}